<svg viewBox="0 0 512 512" xmlns="http://www.w3.org/2000/svg">
  <symbol id="code">
    <path d="M93.918,45.833L69.799,21.714c-0.75-0.75-2.077-0.75-2.827,0l-5.229,5.229c-0.781,0.781-0.781,2.047,0,2.828
      l17.477,17.475L61.744,64.724c-0.781,0.781-0.781,2.047,0,2.828l5.229,5.229c0.375,0.375,0.884,0.587,1.414,0.587
      c0.529,0,1.039-0.212,1.414-0.587l24.117-24.118C94.699,47.881,94.699,46.614,93.918,45.833z"/>
    <path d="M32.759,64.724L15.285,47.248l17.477-17.475c0.375-0.375,0.586-0.883,0.586-1.414c0-0.53-0.21-1.039-0.586-1.414
      l-5.229-5.229c-0.375-0.375-0.884-0.586-1.414-0.586c-0.53,0-1.039,0.211-1.414,0.586L0.585,45.833
      c-0.781,0.781-0.781,2.047,0,2.829L24.704,72.78c0.375,0.375,0.884,0.587,1.414,0.587c0.53,0,1.039-0.212,1.414-0.587l5.229-5.229
      C33.542,66.771,33.542,65.505,32.759,64.724z"/>
    <path d="M60.967,13.6c-0.254-0.466-0.682-0.812-1.19-0.962l-4.239-1.251c-1.058-0.314-2.172,0.293-2.484,1.352L33.375,79.382
      c-0.15,0.509-0.092,1.056,0.161,1.521c0.253,0.467,0.682,0.812,1.19,0.963l4.239,1.251c0.189,0.056,0.38,0.083,0.567,0.083
      c0.863,0,1.66-0.564,1.917-1.435l19.679-66.644C61.278,14.612,61.221,14.065,60.967,13.6z"/>
  </symbol>
  <symbol id="computer">
    <path d="M469.333,21.333H42.667C19.146,21.333,0,40.469,0,64v298.667c0,23.531,19.146,42.667,42.667,42.667h149.381
      c-0.448,17.018-3.698,44.24-15.902,57.094c-4.479,4.708-9.604,6.906-16.146,6.906c-5.896,0-10.667,4.771-10.667,10.667
      c0,5.896,4.771,10.667,10.667,10.667h192c5.896,0,10.667-4.771,10.667-10.667c0-5.896-4.771-10.667-10.667-10.667
      c-6.542,0-11.667-2.188-16.125-6.896c-12.174-12.79-15.445-40.051-15.91-57.104h149.369c23.521,0,42.667-19.135,42.667-42.667V64
      C512,40.469,492.854,21.333,469.333,21.333z M256,384.062c-11.792,0-21.396-9.604-21.396-21.396s9.604-21.396,21.396-21.396
      s21.396,9.604,21.396,21.396S267.792,384.062,256,384.062z M42.667,320V64h426.667l0.018,256H42.667z"/>
  </symbol>
  <symbol id="network">
    <path d="M7.452,24.152h3.435v5.701h0.633c0.001,0,0.001,0,0.002,0h0.636v-5.701h3.51v-1.059h17.124v1.104h3.178v5.656h0.619
      c0,0,0,0,0.002,0h0.619v-5.656h3.736v-0.856c0-0.012,0.006-0.021,0.006-0.032c0-0.072,0-0.143,0-0.215h5.721v-1.316h-5.721
      c0-0.054,0-0.108,0-0.164c0-0.011-0.006-0.021-0.006-0.032v-0.832h-8.154v1.028h-7.911v-2.652h-0.689c-0.001,0-0.001,0-0.002,0
      h-0.678v2.652h-7.846v-1.104H7.452v1.104H1.114v1.316h6.338V24.152z"/>
    <path d="M21.484,16.849h5.204v-2.611h7.133V1.555H14.588v12.683h6.896V16.849z M16.537,12.288V3.505h15.335v8.783H16.537z"/>
    <rect x="18.682" y="16.898" width="10.809" height="0.537"/>
    <path d="M0,43.971h6.896v2.611H12.1v-2.611h7.134V31.287H0V43.971z M1.95,33.236h15.334v8.785H1.95V33.236z"/>
    <rect x="4.095" y="46.631" width="10.808" height="0.537"/>
    <path d="M29.491,30.994v12.684h6.895v2.611h5.205v-2.611h7.133V30.994H29.491z M46.774,41.729H31.44v-8.783h15.334V41.729z"/>
    <rect x="33.584" y="46.338" width="10.809" height="0.537"/>
  </symbol>
  <symbol id="thunder">
    <path d="m315 211h-124.144531l107.167969-188.558594c2.652343-4.644531 2.636718-10.34375-.042969-14.972656-2.695313-4.625-7.632813-7.46875-12.980469-7.46875h-180c-6.457031 0-12.1875 4.132812-14.222656 10.253906l-90 271c-1.539063 4.570313-.761719 9.609375 2.050781 13.519532 2.828125 3.914062 7.355469 6.226562 12.171875 6.226562h127.253906l-81.035156 190.097656c-2.902344 6.753906-.46875 14.621094 5.742188 18.558594 6.109374 3.90625 14.316406 2.878906 19.246093-2.691406l240-271c3.925781-4.410156 4.894531-10.726563 2.476563-16.101563-2.417969-5.390625-7.777344-8.863281-13.683594-8.863281zm0 0"/>
  </symbol>
</svg>
